<svg width="24" height="24" viewBox="0 0 24 24" fill="none" xmlns="http://www.w3.org/2000/svg">
<path d="M22.5 18V16.5H20.9243C20.8275 16.0305 20.6411 15.5841 20.3752 15.1852L21.4927 14.0677L20.4323 13.0073L19.3148 14.1248C18.9159 13.8589 18.4695 13.6725 18 13.5757V12H16.5V13.5757C16.0305 13.6725 15.5841 13.8589 15.1852 14.1248L14.0677 13.0073L13.0073 14.0677L14.1248 15.1852C13.8589 15.5841 13.6725 16.0305 13.5757 16.5H12V18H13.5757C13.6725 18.4695 13.8589 18.9159 14.1248 19.3148L13.0073 20.4323L14.0677 21.4927L15.1852 20.3752C15.5841 20.6411 16.0305 20.8275 16.5 20.9243V22.5H18V20.9243C18.4695 20.8275 18.9159 20.6411 19.3148 20.3752L20.4323 21.4927L21.4927 20.4323L20.3752 19.3148C20.6411 18.9159 20.8275 18.4695 20.9243 18H22.5ZM17.25 19.5C16.805 19.5 16.37 19.368 16 19.1208C15.63 18.8736 15.3416 18.5222 15.1713 18.111C15.001 17.6999 14.9564 17.2475 15.0432 16.811C15.13 16.3746 15.3443 15.9737 15.659 15.659C15.9737 15.3443 16.3746 15.13 16.811 15.0432C17.2475 14.9564 17.6999 15.001 18.111 15.1713C18.5222 15.3416 18.8736 15.63 19.1208 16C19.368 16.37 19.5 16.805 19.5 17.25C19.4994 17.8466 19.2622 18.4185 18.8403 18.8403C18.4185 19.2622 17.8466 19.4994 17.25 19.5Z" fill="white"/>
<path d="M21 3H3C2.6023 3.0004 2.221 3.15856 1.93978 3.43978C1.65856 3.721 1.5004 4.1023 1.5 4.5V19.5C1.5004 19.8977 1.65856 20.279 1.93978 20.5602C2.221 20.8414 2.6023 20.9996 3 21H10.5V19.5H3V9H21V11.25H22.5V4.5C22.4996 4.1023 22.3414 3.721 22.0602 3.43978C21.779 3.15856 21.3977 3.0004 21 3ZM21 7.5H3V4.5H21V7.5Z" fill="white"/>
<path d="M15 6.75C15.4142 6.75 15.75 6.41421 15.75 6C15.75 5.58579 15.4142 5.25 15 5.25C14.5858 5.25 14.25 5.58579 14.25 6C14.25 6.41421 14.5858 6.75 15 6.75Z" fill="white"/>
<path d="M17.25 6.75C17.6642 6.75 18 6.41421 18 6C18 5.58579 17.6642 5.25 17.25 5.25C16.8358 5.25 16.5 5.58579 16.5 6C16.5 6.41421 16.8358 6.75 17.25 6.75Z" fill="white"/>
<path d="M19.5 6.75C19.9142 6.75 20.25 6.41421 20.25 6C20.25 5.58579 19.9142 5.25 19.5 5.25C19.0858 5.25 18.75 5.58579 18.75 6C18.75 6.41421 19.0858 6.75 19.5 6.75Z" fill="white"/>
</svg>
