<svg width="32" height="32" viewBox="0 0 32 32" fill="none" xmlns="http://www.w3.org/2000/svg">
<path d="M24.8792 2.87892C25.1547 2.5876 25.4859 2.35448 25.8531 2.19334C26.2203 2.03219 26.616 1.9463 27.017 1.94072C27.4179 1.93514 27.8159 2.01 28.1874 2.16088C28.559 2.31175 28.8965 2.53557 29.18 2.81911C29.4635 3.10265 29.6874 3.44016 29.8382 3.81168C29.9891 4.1832 30.064 4.5812 30.0584 4.98215C30.0528 5.38309 29.9669 5.77886 29.8058 6.14604C29.6446 6.51322 29.4115 6.84437 29.1202 7.11992L20.3302 15.9099C20.3186 15.9215 20.3093 15.9353 20.303 15.9505C20.2967 15.9657 20.2935 15.982 20.2935 15.9984C20.2935 16.0149 20.2967 16.0311 20.303 16.0463C20.3093 16.0615 20.3186 16.0753 20.3302 16.0869L29.1202 24.8769C29.4025 25.1546 29.6271 25.4855 29.7809 25.8504C29.9347 26.2153 30.0148 26.6071 30.0164 27.0031C30.0181 27.3991 29.9413 27.7916 29.7906 28.1578C29.6398 28.524 29.418 28.8567 29.138 29.1368C28.858 29.4168 28.5254 29.6387 28.1592 29.7895C27.793 29.9404 27.4006 30.0172 27.0046 30.0157C26.6086 30.0141 26.2168 29.9341 25.8518 29.7804C25.4869 29.6267 25.156 29.4022 24.8782 29.1199L16.0882 20.3299C16.0766 20.3183 16.0628 20.309 16.0476 20.3027C16.0324 20.2964 16.0161 20.2932 15.9997 20.2932C15.9833 20.2932 15.967 20.2964 15.9518 20.3027C15.9366 20.309 15.9228 20.3183 15.9112 20.3299L7.12119 29.1199C6.84349 29.4023 6.51263 29.6268 6.1477 29.7806C5.78278 29.9345 5.39101 30.0145 4.99499 30.0162C4.59897 30.0178 4.20654 29.9411 3.84034 29.7903C3.47414 29.6395 3.14141 29.4178 2.86135 29.1378C2.58129 28.8578 2.35944 28.5251 2.20859 28.1589C2.05774 27.7928 1.98088 27.4004 1.98245 27.0043C1.98401 26.6083 2.06397 26.2165 2.21771 25.8516C2.37145 25.4866 2.59593 25.1557 2.87819 24.8779L11.6682 16.0879C11.6798 16.0763 11.6891 16.0625 11.6954 16.0473C11.7017 16.0321 11.7049 16.0159 11.7049 15.9994C11.7049 15.983 11.7017 15.9667 11.6954 15.9515C11.6891 15.9363 11.6798 15.9225 11.6682 15.9109L2.87819 7.12092C2.32309 6.55683 2.01336 5.79624 2.01649 5.00483C2.01962 4.21342 2.33535 3.4553 2.8949 2.89562C3.45445 2.33594 4.21249 2.02003 5.0039 2.01672C5.79531 2.0134 6.55597 2.32294 7.12019 2.87792L15.9102 11.6679C15.9218 11.6796 15.9356 11.6888 15.9508 11.6951C15.966 11.7014 15.9823 11.7046 15.9987 11.7046C16.0151 11.7046 16.0314 11.7014 16.0466 11.6951C16.0618 11.6888 16.0756 11.6796 16.0872 11.6679L24.8772 2.87792L24.8792 2.87892Z" fill="white"/>
</svg>
