<svg width="48" height="48" viewBox="0 0 48 48" fill="none" xmlns="http://www.w3.org/2000/svg">
<path d="M41 12H7M37.666 17L36.746 30.8C36.392 36.108 36.216 38.762 34.486 40.38C32.756 42 30.094 42 24.774 42H23.226C17.906 42 15.244 42 13.514 40.38C11.784 38.762 11.606 36.108 11.254 30.8L10.334 17M19 22L20 32M29 22L28 32" stroke="#272350" stroke-width="1.5" stroke-linecap="round"/>
<path d="M13 12H13.22C14.0249 11.9794 14.8048 11.7164 15.4578 11.2454C16.1109 10.7744 16.6065 10.1173 16.88 9.36L16.948 9.154L17.142 8.572C17.308 8.074 17.392 7.826 17.502 7.614C17.7184 7.19878 18.029 6.83998 18.409 6.56632C18.7889 6.29265 19.2276 6.11172 19.69 6.038C19.924 6 20.186 6 20.71 6H27.29C27.814 6 28.076 6 28.31 6.038C28.7724 6.11172 29.2111 6.29265 29.591 6.56632C29.971 6.83998 30.2816 7.19878 30.498 7.614C30.608 7.826 30.692 8.074 30.858 8.572L31.052 9.154C31.3055 9.99655 31.8296 10.732 32.5434 11.2465C33.2571 11.761 34.1205 12.0259 35 12" stroke="#272350" stroke-width="1.5"/>
</svg>
