<svg width="58" height="58" viewBox="0 0 58 58" fill="none" xmlns="http://www.w3.org/2000/svg">
<path d="M22.1735 12.0261C22.445 11.7539 22.8135 11.6006 23.198 11.6001C23.5825 11.5996 23.9515 11.7517 24.2238 12.0232L40.1274 27.8717C40.276 28.0199 40.3939 28.1959 40.4744 28.3897C40.5548 28.5836 40.5962 28.7914 40.5962 29.0012C40.5962 29.2111 40.5548 29.4189 40.4744 29.6127C40.3939 29.8066 40.276 29.9826 40.1274 30.1308L24.2238 45.9793C23.9499 46.2431 23.5834 46.3887 23.2032 46.3849C22.823 46.3811 22.4596 46.228 22.1911 45.9588C21.9226 45.6896 21.7706 45.3257 21.7679 44.9455C21.7651 44.5653 21.9118 44.1992 22.1764 43.9261L37.1549 28.9998L22.1764 14.0764C21.9041 13.8049 21.7509 13.4363 21.7504 13.0518C21.7498 12.6674 21.902 12.2984 22.1735 12.0261Z" fill="#272350"/>
</svg>
