<svg width="57" height="57" viewBox="0 0 57 57" fill="none" xmlns="http://www.w3.org/2000/svg">
<path d="M30.0172 55.5976C29.0408 55.9744 27.9592 55.9744 26.9829 55.5976C19.358 52.6079 12.8108 47.39 8.19512 40.6243C3.57944 33.8587 1.10944 25.8592 1.10718 17.6691V5.32122C1.10718 4.20352 1.55118 3.1316 2.34151 2.34127C3.13185 1.55094 4.20377 1.10693 5.32146 1.10693H51.6786C52.7963 1.10693 53.8682 1.55094 54.6586 2.34127C55.4489 3.1316 55.8929 4.20352 55.8929 5.32122V17.6269C55.8991 25.8243 53.433 33.8329 48.8168 40.6069C44.2006 47.3809 37.6488 52.6052 30.0172 55.5976Z" stroke="#FECC38" stroke-linecap="round" stroke-linejoin="round"/>
<path d="M28.5001 32.714C34.3188 32.714 39.0358 27.997 39.0358 22.1783C39.0358 16.3596 34.3188 11.6426 28.5001 11.6426C22.6814 11.6426 17.9644 16.3596 17.9644 22.1783C17.9644 27.997 22.6814 32.714 28.5001 32.714Z" stroke="#FECC38" stroke-linecap="round" stroke-linejoin="round"/>
<path d="M12.6964 46.1574C14.6738 43.9153 17.1056 42.1196 19.8304 40.8896C22.5552 39.6596 25.5105 39.0234 28.5 39.0234C31.4895 39.0234 34.4448 39.6596 37.1696 40.8896C39.8943 42.1196 42.3262 43.9153 44.3036 46.1574" stroke="#FECC38" stroke-linecap="round" stroke-linejoin="round"/>
</svg>
