<svg width="86" height="86" viewBox="0 0 86 86" fill="none" xmlns="http://www.w3.org/2000/svg">
<path d="M73.4583 21.5H12.5416M67.4849 30.4583L65.8365 55.1833C65.2023 64.6935 64.887 69.4486 61.7874 72.3475C58.6878 75.25 53.9184 75.25 44.3867 75.25H41.6132C32.0815 75.25 27.3121 75.25 24.2125 72.3475C21.113 69.4486 20.794 64.6935 20.1634 55.1833L18.515 30.4583M34.0416 39.4167L35.8333 57.3333M51.9583 39.4167L50.1666 57.3333" stroke="#E53750" stroke-width="1.5" stroke-linecap="round"/>
<path d="M23.2916 21.5H23.6858C25.1279 21.4632 26.5253 20.992 27.6953 20.1481C28.8652 19.3041 29.7533 18.1268 30.2433 16.77L30.3651 16.4009L30.7127 15.3582C31.0101 14.4659 31.1606 14.0216 31.3577 13.6417C31.7455 12.8978 32.3019 12.255 32.9827 11.7647C33.6634 11.2743 34.4494 10.9502 35.2779 10.8181C35.6971 10.75 36.1665 10.75 37.1054 10.75H48.8945C49.8334 10.75 50.3028 10.75 50.722 10.8181C51.5505 10.9502 52.3365 11.2743 53.0173 11.7647C53.698 12.255 54.2545 12.8978 54.6422 13.6417C54.8393 14.0216 54.9898 14.4659 55.2872 15.3582L55.6348 16.4009C56.0889 17.9105 57.028 19.2282 58.3068 20.15C59.5856 21.0718 61.1326 21.5463 62.7083 21.5" stroke="#E53750" stroke-width="1.5"/>
</svg>
