<svg width="57" height="57" viewBox="0 0 57 57" fill="none" xmlns="http://www.w3.org/2000/svg">
<path d="M28.5001 32.5715C34.1216 32.5715 38.6787 28.0144 38.6787 22.3929C38.6787 16.7715 34.1216 12.2144 28.5001 12.2144C22.8786 12.2144 18.3215 16.7715 18.3215 22.3929C18.3215 28.0144 22.8786 32.5715 28.5001 32.5715Z" stroke="#272350" stroke-linecap="round" stroke-linejoin="round"/>
<path d="M41.9765 43.7678C38.2562 40.4819 33.4637 38.6684 28.5001 38.6684C23.5364 38.6684 18.7439 40.4819 15.0236 43.7678M54.9643 42.7499V50.8928C54.9643 51.9726 54.5354 53.0082 53.7718 53.7717C53.0083 54.5353 51.9727 54.9642 50.8929 54.9642H42.75M42.75 2.03564H50.8929C51.9727 2.03564 53.0083 2.4646 53.7718 3.22814C54.5354 3.99168 54.9643 5.02726 54.9643 6.10707V14.2499M2.03577 14.2499V6.10707C2.03577 5.02726 2.46472 3.99168 3.22826 3.22814C3.9918 2.4646 5.02738 2.03564 6.10719 2.03564H14.2501M14.2501 54.9642H6.10719C5.02738 54.9642 3.9918 54.5353 3.22826 53.7717C2.46472 53.0082 2.03577 51.9726 2.03577 50.8928V42.7499" stroke="#272350" stroke-linecap="round" stroke-linejoin="round"/>
</svg>
